<svg viewBox="0 0 391 186" xmlns="http://www.w3.org/2000/svg" data-sanitized-data-name="Layer 1" data-name="Layer 1" id="Layer_1">
  <defs>
    <style>
      .cls-1, .cls-2 {
        fill: #000;
        stroke-width: 0px;
      }

      .cls-2 {
        fill-rule: evenodd;
      }
    </style>
  </defs>
  <path d="M17.83,17.46h47.71v153.09H17.83V17.46ZM82.38,17.46v37.11h42.93v115.97h47.71V54.57h106.14c22.39,0,40.55,13.14,40.55,39.43s-18.15,39.43-40.55,39.43h-15.5v-39.43h-47.71v39.43h0v37.11h75.14c43.47,0,78.71-25.51,78.71-76.54s-35.24-76.54-78.71-76.54H82.38Z" class="cls-2"></path>
  <g>
    <path d="M363.96,153.63c.84-.14,2.09-.25,3.39-.25,1.76,0,2.97.28,3.79.96.67.55,1.06,1.39,1.06,2.4,0,1.55-1.08,2.6-2.22,3v.05c.88.32,1.4,1.15,1.71,2.31.38,1.49.71,2.88.97,3.34h-2.32c-.18-.35-.47-1.33-.82-2.83-.35-1.56-.93-2.06-2.21-2.1h-1.13v4.92h-2.22v-11.82ZM366.18,158.93h1.33c1.51,0,2.46-.78,2.46-1.97,0-1.32-.95-1.92-2.4-1.92-.71,0-1.16.05-1.38.11v3.78Z" class="cls-1"></path>
    <path d="M367.94,170.38c-3,0-5.82-1.14-7.94-3.21-2.12-2.07-3.29-4.83-3.29-7.75s1.17-5.68,3.29-7.75c2.13-2.07,4.94-3.21,7.94-3.21s5.82,1.14,7.95,3.21c2.12,2.07,3.29,4.82,3.29,7.75s-1.17,5.68-3.29,7.75c-2.12,2.07-4.94,3.21-7.95,3.21ZM367.94,150.47c-5.05,0-9.16,4.01-9.16,8.94s4.11,8.94,9.16,8.94,9.17-4.01,9.17-8.94-4.11-8.94-9.17-8.94Z" class="cls-1"></path>
  </g>
</svg>