<?xml version="1.0" encoding="utf-8"?>
<!-- Generator: Adobe Illustrator 16.0.0, SVG Export Plug-In . SVG Version: 6.00 Build 0)  -->
<!DOCTYPE svg PUBLIC "-//W3C//DTD SVG 1.1//EN" "http://www.w3.org/Graphics/SVG/1.1/DTD/svg11.dtd">
<svg version="1.1" id="Layer_1" xmlns="http://www.w3.org/2000/svg" xmlns:xlink="http://www.w3.org/1999/xlink" x="0px" y="0px"
	 width="210px" height="47px" viewBox="0 -3 210 47" enable-background="new 0 -3 210 47" xml:space="preserve">
<rect y="-3" fill="none" width="210" height="47"/>
<title>Logos / Manac avec slogan / color EN</title>
<g id="Logos-_x2F_-Manac-avec-slogan-_x2F_-color-EN">
	<g id="Group-19" transform="translate(0.000515, -0.000100)">
		<path id="Fill-1" fill="#D22730" d="M32.455,28.213c5.814,0,10.766-4.741,10.909-10.556c0.214-5.884-4.379-10.551-10.193-10.551
			c-5.815,0-10.766,4.737-10.909,10.551C22.042,23.472,26.566,28.213,32.455,28.213"/>
		<path id="Fill-3" fill="#D22730" d="M10.2,28.213c5.814,0,10.766-4.741,10.909-10.556c0.218-5.884-4.305-10.551-10.193-10.551
			c-5.815,0-10.766,4.737-10.909,10.551C-0.207,23.472,4.386,28.213,10.2,28.213"/>
		<polygon id="Fill-5" fill="#D22730" points="199.136,3.878 199.999,0 3.522,0 2.663,3.878 		"/>
		<path id="Fill-8" fill="#1C1C1C" d="M47.673,7.538h7.607l-0.645,2.944h0.07c2.298-1.867,4.955-3.446,8.758-3.446
			c2.727,0,5.169,0.715,6.316,3.446c2.513-2.085,5.169-3.446,9.117-3.446c4.165,0,7.323,1.793,6.32,6.748l-2.944,13.71h-7.826
			l2.443-11.629c0.428-1.937-0.65-2.945-2.731-2.945c-2.87,0-4.667,1.366-5.094,3.447l-2.369,11.127H58.94l2.442-11.629
			c0.433-1.937-0.645-2.945-2.73-2.945c-2.87,0-4.663,1.366-5.095,3.447l-2.368,11.127h-7.756L47.673,7.538z"/>
		<path id="Fill-10" fill="#1C1C1C" d="M104.457,18.163c-0.647,0.214-1.651,0.357-3.092,0.571l-5.383,0.646
			c-1.649,0.218-2.439,0.79-2.656,2.011c-0.358,1.58,0.863,2.443,3.014,2.443c4.523,0,7.324-1.724,7.969-4.454L104.457,18.163z
			 M87.798,13.784c2.011-5.959,7.825-6.748,13.928-6.748c7.25,0,12.414,1.147,11.271,6.748l-2.156,10.119
			c-0.357,1.724-0.357,2.442,0.07,3.591h-7.824c-0.141-0.576-0.07-1.291,0-1.867c-2.728,2.155-6.028,2.655-9.977,2.655
			c-6.39,0-9.335-2.079-8.471-6.245c0.934-4.519,4.305-6.172,9.976-6.529l7.898-0.502c2.082-0.144,2.519-0.576,2.728-1.653
			c0.286-1.365-1.082-2.155-4.449-2.155c-2.871,0-4.454,0.79-5.169,2.512h-7.825V13.784z"/>
		<path id="Fill-12" fill="#1C1C1C" d="M116.949,7.538h7.607l-0.575,2.87h0.069c2.006-1.937,5.164-3.372,9.115-3.372
			c4.879,0,7.967,2.369,6.893,7.319l-2.799,13.14h-7.826l2.293-10.767c0.507-2.512-0.645-3.808-3.227-3.808
			c-2.723,0-5.166,1.51-5.881,4.812l-2.084,9.763h-7.826L116.949,7.538z"/>
		<path id="Fill-14" fill="#1C1C1C" d="M159.365,18.163c-0.646,0.214-1.648,0.357-3.089,0.571l-5.374,0.646
			c-1.656,0.218-2.441,0.79-2.66,2.011c-0.356,1.58,0.863,2.443,3.01,2.443c4.527,0,7.328-1.724,7.974-4.454L159.365,18.163z
			 M142.718,13.784c2.008-5.959,7.816-6.748,13.924-6.748c7.25,0,12.414,1.147,11.271,6.748l-2.154,10.119
			c-0.358,1.724-0.358,2.442,0.068,3.591h-7.824c-0.141-0.576-0.07-1.291,0-1.867c-2.723,2.155-6.029,2.655-9.98,2.655
			c-6.387,0-9.334-2.079-8.462-6.245c0.925-4.519,4.301-6.172,9.972-6.529l7.896-0.502c2.084-0.144,2.513-0.576,2.729-1.653
			c0.288-1.365-1.072-2.155-4.449-2.155c-2.869,0-4.457,0.79-5.172,2.512h-7.817L142.718,13.784L142.718,13.784z"/>
		<path id="Fill-16" fill="#1C1C1C" d="M195.76,19.38c-2.364,5.675-6.962,8.978-15.722,8.978c-8.828,0-13.276-3.446-11.697-10.771
			c1.509-7.249,7.686-10.769,16.296-10.769c7.459,0,12.274,2.229,11.629,8.545h-8.044c0.07-2.155-1.291-3.446-4.59-3.446
			c-3.662,0-6.314,2.011-7.039,5.67c-0.785,3.59,0.934,5.601,4.668,5.601c2.947,0,5.164-1.221,6.246-3.808H195.76z"/>
	</g>
	<g id="Group-56" transform="translate(42.967313, 34.850332)">
		<polygon id="Fill-18" fill="#D22730" points="1.523,9.073 2.895,9.073 3.848,1.29 6.324,1.29 6.472,0.075 0.148,0.075 0,1.29 
			2.477,1.29 		"/>
		<path id="Fill-20" fill="#D22730" d="M6.354,4.573C6.09,6.738,6.159,7.001,6.386,7.532C6.721,8.316,7.598,9.15,9.02,9.15
			s2.501-0.834,3.029-1.617c0.358-0.53,0.491-0.795,0.756-2.957C13.069,2.413,13,2.15,12.773,1.618C12.438,0.834,11.563,0,10.141,0
			c-1.423,0-2.503,0.834-3.03,1.616C6.753,2.15,6.619,2.413,6.354,4.573 M7.726,4.573c0.226-1.845,0.359-2.097,0.77-2.553
			c0.323-0.354,0.83-0.656,1.478-0.656c0.646,0,1.079,0.303,1.315,0.656c0.3,0.456,0.371,0.708,0.145,2.553
			c-0.226,1.846-0.359,2.1-0.771,2.555c-0.321,0.354-0.829,0.656-1.476,0.656s-1.08-0.303-1.316-0.656
			C7.571,6.673,7.499,6.419,7.726,4.573"/>
		<path id="Fill-22" fill="#D22730" d="M17.236,5.409h1.844l-0.058,0.467c-0.137,1.125-1.046,1.908-2.088,1.908
			c-0.648,0-1.08-0.303-1.316-0.656c-0.301-0.455-0.371-0.708-0.145-2.553c0.226-1.846,0.359-2.099,0.771-2.553
			c0.322-0.354,0.829-0.658,1.478-0.658c0.863,0,1.437,0.606,1.567,1.303h1.447C20.636,1.2,19.601,0,17.887,0
			c-1.422,0-2.502,0.835-3.03,1.618c-0.357,0.529-0.492,0.795-0.756,2.957c-0.266,2.16-0.194,2.426,0.032,2.957
			c0.335,0.783,1.212,1.617,2.634,1.617c1.803,0,3.399-1.416,3.617-3.197l0.224-1.832h-3.212L17.236,5.409z"/>
		<polygon id="Fill-24" fill="#D22730" points="21.601,9.073 27.379,9.073 27.537,7.784 23.131,7.784 23.454,5.144 27.213,5.144 
			27.362,3.931 23.603,3.931 23.917,1.365 28.323,1.365 28.481,0.075 22.702,0.075 		"/>
		<polygon id="Fill-26" fill="#D22730" points="30.2,9.073 31.572,9.073 32.525,1.29 35,1.29 35.149,0.075 28.825,0.075 
			28.676,1.29 31.154,1.29 		"/>
		<polygon id="Fill-28" fill="#D22730" points="39.966,9.073 41.338,9.073 42.439,0.075 41.068,0.075 40.596,3.931 37.015,3.931 
			37.487,0.075 36.114,0.075 35.012,9.073 36.384,9.073 36.867,5.144 40.448,5.144 		"/>
		<polygon id="Fill-30" fill="#D22730" points="43.241,9.073 49.02,9.073 49.178,7.784 44.772,7.784 45.095,5.144 48.854,5.144 
			49.003,3.931 45.245,3.931 45.558,1.365 49.963,1.365 50.122,0.075 44.344,0.075 		"/>
		<path id="Fill-32" fill="#D22730" d="M52.628,1.288h2.146c0.47,0,0.739,0.089,0.969,0.279c0.255,0.2,0.39,0.555,0.332,1.022
			c-0.091,0.759-0.682,1.429-1.71,1.429h-2.07L52.628,1.288z M50.303,9.073h1.373l0.47-3.842h1.752l1.398,3.842h1.625l-1.606-3.992
			c1.139-0.379,1.916-1.328,2.057-2.49c0.1-0.811-0.211-1.492-0.667-1.922c-0.431-0.416-1.005-0.594-1.767-0.594h-3.533
			L50.303,9.073z"/>
		<polygon id="Fill-34" fill="#D22730" points="62.544,9.073 63.689,9.073 66.208,2.591 66.235,2.591 67.167,9.073 68.312,9.073 
			71.673,0.075 70.226,0.075 68.019,6.47 67.996,6.47 67.027,0.075 66.035,0.075 63.499,6.47 63.474,6.47 62.835,0.075 
			61.386,0.075 		"/>
		<polygon id="Fill-36" fill="#D22730" points="71.664,9.073 77.443,9.073 77.601,7.784 73.195,7.784 73.517,5.144 77.277,5.144 
			77.425,3.931 73.667,3.931 73.98,1.365 78.386,1.365 78.544,0.075 72.767,0.075 		"/>
		<path id="Fill-38" fill="#D22730" d="M85.156,5.409h1.844l-0.059,0.467c-0.137,1.125-1.046,1.908-2.088,1.908
			c-0.648,0-1.081-0.303-1.316-0.656c-0.301-0.455-0.371-0.708-0.146-2.553c0.228-1.846,0.358-2.099,0.771-2.553
			c0.322-0.354,0.828-0.658,1.478-0.658c0.862,0,1.438,0.606,1.567,1.303h1.448C88.554,1.2,87.521,0,85.806,0
			c-1.422,0-2.503,0.835-3.031,1.618c-0.355,0.529-0.49,0.795-0.754,2.957c-0.268,2.16-0.195,2.426,0.03,2.957
			c0.335,0.783,1.212,1.617,2.635,1.617c1.804,0,3.399-1.416,3.616-3.197l0.225-1.832h-3.213L85.156,5.409z"/>
		<path id="Fill-40" fill="#D22730" d="M89.766,4.573c-0.265,2.162-0.195,2.428,0.032,2.959c0.336,0.783,1.213,1.617,2.635,1.617
			s2.502-0.834,3.029-1.617c0.356-0.531,0.49-0.797,0.756-2.959c0.264-2.16,0.195-2.426-0.032-2.957C95.851,0.834,94.975,0,93.553,0
			c-1.423,0-2.503,0.834-3.03,1.616C90.165,2.15,90.031,2.413,89.766,4.573 M91.138,4.573c0.227-1.845,0.359-2.097,0.771-2.553
			c0.321-0.354,0.828-0.656,1.478-0.656c0.646,0,1.08,0.303,1.313,0.656c0.301,0.456,0.373,0.708,0.146,2.553
			c-0.227,1.846-0.357,2.1-0.771,2.555c-0.322,0.354-0.828,0.656-1.477,0.656c-0.646,0-1.08-0.303-1.314-0.656
			C90.984,6.673,90.914,6.419,91.138,4.573"/>
		<polygon id="Fill-42" fill="#D22730" points="100.315,9.073 101.687,9.073 102.158,5.234 105.915,5.234 106.064,4.019 
			102.306,4.019 102.63,1.365 107.037,1.365 107.195,0.075 101.417,0.075 		"/>
		<path id="Fill-44" fill="#D22730" d="M107.342,6.029c-0.229,1.871,1.04,3.121,2.831,3.121c1.789,0,3.365-1.25,3.596-3.121
			l0.729-5.953h-1.371l-0.711,5.802c-0.15,1.239-1.033,1.909-2.074,1.909s-1.762-0.67-1.608-1.909l0.711-5.802h-1.372L107.342,6.029
			z"/>
		<path id="Fill-46" fill="#D22730" d="M117.46,1.288h2.146c0.469,0,0.739,0.089,0.969,0.279c0.254,0.2,0.389,0.555,0.332,1.022
			c-0.093,0.759-0.683,1.429-1.712,1.429h-2.069L117.46,1.288z M115.135,9.073h1.372l0.471-3.842h1.752l1.398,3.842h1.625
			l-1.607-3.992c1.139-0.379,1.915-1.328,2.057-2.49c0.102-0.811-0.211-1.492-0.666-1.922c-0.432-0.416-1.006-0.594-1.768-0.594
			h-3.532L115.135,9.073z"/>
		<polygon id="Fill-48" fill="#D22730" points="124.191,9.073 125.564,9.073 126.516,1.29 128.992,1.29 129.14,0.075 122.816,0.075 
			122.667,1.29 125.144,1.29 		"/>
		<polygon id="Fill-50" fill="#D22730" points="133.957,9.073 135.33,9.073 136.43,0.075 135.058,0.075 134.587,3.931 
			131.005,3.931 131.478,0.075 130.105,0.075 129.001,9.073 130.376,9.073 130.857,5.144 134.439,5.144 		"/>
		<polygon id="Fill-52" fill="#D22730" points="137.234,9.073 143.012,9.073 143.169,7.784 138.764,7.784 139.087,5.144 
			142.846,5.144 142.996,3.931 139.237,3.931 139.55,1.365 143.957,1.365 144.115,0.075 138.335,0.075 		"/>
		<path id="Fill-54" fill="#D22730" d="M146.621,1.288h2.146c0.47,0,0.738,0.089,0.969,0.279c0.256,0.2,0.391,0.555,0.332,1.022
			c-0.094,0.759-0.684,1.429-1.711,1.429h-2.07L146.621,1.288z M144.294,9.073h1.371l0.473-3.842h1.752l1.396,3.842h1.625
			l-1.607-3.992c1.141-0.379,1.916-1.328,2.059-2.49c0.1-0.811-0.211-1.492-0.666-1.922c-0.432-0.416-1.007-0.594-1.769-0.594
			h-3.532L144.294,9.073z"/>
	</g>
</g>
<g>
	<g>
		<path fill="#1C1C1C" d="M205.801-2.796c2.332,0,4.221,1.889,4.221,4.22c0,2.332-1.889,4.221-4.221,4.221s-4.221-1.889-4.221-4.221
			C201.58-0.907,203.469-2.796,205.801-2.796z M205.801,4.805c1.9,0,3.311-1.41,3.311-3.381c0-1.97-1.41-3.38-3.311-3.38
			s-3.311,1.411-3.311,3.38C202.49,3.395,203.9,4.805,205.801,4.805z M204.203-1.152h1.865c1.131,0,1.691,0.455,1.691,1.469
			c0,0.979-0.572,1.353-1.26,1.434l1.41,2.018h-0.979l-1.41-1.994h-0.479v1.994h-0.84V-1.152z M205.043,1.004h0.583
			c0.677,0,1.294-0.046,1.294-0.688c0-0.571-0.56-0.699-1.107-0.699h-0.77V1.004z"/>
	</g>
	<g>
		<path fill="#2D2926" d="M205.801-2.796c2.332,0,4.221,1.889,4.221,4.22c0,2.332-1.889,4.221-4.221,4.221s-4.221-1.889-4.221-4.221
			C201.58-0.907,203.469-2.796,205.801-2.796z M205.801,4.805c1.9,0,3.311-1.41,3.311-3.381c0-1.97-1.41-3.38-3.311-3.38
			s-3.311,1.411-3.311,3.38C202.49,3.395,203.9,4.805,205.801,4.805z M204.203-1.152h1.865c1.131,0,1.691,0.455,1.691,1.469
			c0,0.979-0.572,1.353-1.26,1.434l1.41,2.018h-0.979l-1.41-1.994h-0.479v1.994h-0.84V-1.152z M205.043,1.004h0.583
			c0.677,0,1.294-0.046,1.294-0.688c0-0.571-0.56-0.699-1.107-0.699h-0.77V1.004z"/>
	</g>
</g>
</svg>
